<?xml version="1.0" standalone="no"?>
<!DOCTYPE svg PUBLIC "-//W3C//DTD SVG 20010904//EN"
 "http://www.w3.org/TR/2001/REC-SVG-20010904/DTD/svg10.dtd">
<svg version="1.0" xmlns="http://www.w3.org/2000/svg"
 width="24.000000pt" height="24.000000pt" viewBox="0 0 24.000000 24.000000"
 preserveAspectRatio="xMidYMid meet">

<g transform="translate(0.000000,24.000000) scale(0.100000,-0.100000)"
fill="#000000" stroke="none">
<path d="M41 199 c-26 -25 -31 -38 -31 -77 0 -31 7 -55 20 -72 19 -25 20 -25
20 -3 0 12 7 26 15 31 14 7 13 11 -5 27 -38 34 -20 69 52 100 20 8 45 12 54 8
12 -4 15 -3 10 5 -4 7 -29 12 -56 12 -41 0 -53 -5 -79 -31z"/>
<path d="M197 189 c8 -45 -69 -88 -98 -53 -12 15 -12 16 9 10 24 -8 72 15 72
34 0 20 -59 10 -87 -14 -23 -20 -26 -28 -17 -43 6 -10 23 -19 37 -21 33 -4 55
-28 39 -44 -9 -9 -12 -8 -12 5 0 25 -28 21 -32 -6 -2 -14 -11 -23 -26 -25 -40
-6 -12 -22 38 -22 41 0 53 5 79 31 26 25 31 38 31 77 0 30 -7 56 -19 71 l-19
25 5 -25z"/>
<path d="M75 60 c-3 -5 -1 -10 4 -10 6 0 11 5 11 10 0 6 -2 10 -4 10 -3 0 -8
-4 -11 -10z"/>
</g>
</svg>
